<svg id="visual" viewBox="0 0 1500 540" width="1500" height="540" xmlns="http://www.w3.org/2000/svg" xmlns:xlink="http://www.w3.org/1999/xlink" version="1.1"><rect x="0" y="0" width="1500" height="540" fill="#e7e7e7"></rect><path d="M0 393L50 407.3C100 421.7 200 450.3 300 460.7C400 471 500 463 600 444.2C700 425.3 800 395.7 900 400.2C1000 404.7 1100 443.3 1200 464.3C1300 485.3 1400 488.7 1450 490.3L1500 492L1500 541L1450 541C1400 541 1300 541 1200 541C1100 541 1000 541 900 541C800 541 700 541 600 541C500 541 400 541 300 541C200 541 100 541 50 541L0 541Z" fill="#0066FF" stroke-linecap="round" stroke-linejoin="miter"></path></svg>